<?xml version="1.0" encoding="utf-8"?>
<!-- Generator: Adobe Illustrator 23.0.3, SVG Export Plug-In . SVG Version: 6.00 Build 0)  -->
<svg version="1.1" id="Layer_1" xmlns="http://www.w3.org/2000/svg" xmlns:xlink="http://www.w3.org/1999/xlink" x="0px" y="0px"
	 viewBox="0 0 24 24" style="enable-background:new 0 0 24 24;" xml:space="preserve">
<style type="text/css">
	.st0{fill:#FFFFFF;}
</style>
<path class="st0" d="M22.1,13c2.5,2.5,2.5,6.6,0,9.1s-6.6,2.5-9.1,0l-2.9-2.9c1.3,0.1,2.6-0.1,3.8-0.6l1.3,1.3
	c1.3,1.3,3.4,1.3,4.7,0c1.3-1.3,1.3-3.4,0-4.7l-4.3-4.3c-0.5-0.5-1-0.8-1.6-0.9c-1.6-0.4-3.2,0.5-3.8,1.9L7.9,9.7
	c1.9-2.8,5.6-3.7,8.4-2.1c0.5,0.3,1,0.6,1.4,1.1C17.8,8.7,22.1,13,22.1,13z M1.9,1.9c-2.5,2.5-2.5,6.6,0,9.1l4.3,4.3
	c0.4,0.4,0.9,0.8,1.4,1.1c1.4,0.8,3.1,1,4.6,0.6c1.2-0.3,2.2-0.9,3-1.7c0.3-0.3,0.6-0.6,0.8-1l-2.2-2.2c-0.2,0.4-0.4,0.7-0.7,1.1
	c-1.3,1.3-3.4,1.3-4.7,0L4.1,8.8c-1.3-1.3-1.3-3.4,0-4.7s3.4-1.3,4.7,0l1.3,1.3c1.2-0.5,2.5-0.7,3.8-0.6L11,1.9
	C8.5-0.6,4.4-0.6,1.9,1.9z"/>
</svg>
