<svg xmlns="http://www.w3.org/2000/svg" viewBox="0 0 139.4 67.1">
  <path d="M23.7.1c-1.7.3-4.2 1.4-6 2.7-2.4 1.7-3.8 3.3-5.7 6.5-2.3 3.8-3.9 8.7-5 15.3-.1.7-.2 1.3-.2 1.3s-.6.1-2.7.3c-1.9.2-2.5.4-3.1 1-1 1-1.2 2.6-.6 3.8.6 1.4 1.5 1.7 4 1.5.7 0 1.4-.1 1.6-.1h.2v.5c-.2 1.9-.3 4.5-.3 8.7 0 6 .2 9.4.7 13.5.3 2.3.8 4.9 1.2 6.7.6 2.4 1.8 4.1 3.5 5 1.4.8 2.9.5 4.1-.7 1.3-1.3 1.3-2.7 0-4.4-.2-.3-.4-.5-.5-.5-.1 0-.2-.2-.4-.4-.9-1.1-1.7-6.4-2.1-13.5-.1-2.1-.1-9.9 0-11.8.1-1.5.3-3.5.3-3.5s.5-.1 1.1-.1c.6 0 1.3-.1 1.5-.2.3 0 .6-.1.7-.1.1 0 1.5-.2 3-.4 6.4-.7 7.2-.9 8-2.1.5-.8.8-1.8.6-2.6-.2-.9-.8-1.7-1.5-2.1-.6-.3-1.1-.4-2.4-.2-1.1.1-4.3.5-7 .8-.7-.1-1.8 0-2.2 0-.5.1-.9.1-.9.1s.1-.5.2-1.1c1.1-5.8 2.3-9.2 4.2-12.1 1-1.7 2.1-2.9 3.5-3.9.7-.5 2-1.2 2.5-1.3.5-.1 1-.1 1.3.1.3.2.7.9.7 1.2 0 .1 0 .4.1.5s.1.4.1.6c.2 1 1 1.8 2 2.1.6.2 1.6 0 2.4-.3.7-.3 1.3-.9 1.6-1.6l.2-.5V7.5c0-1.5-.1-2-.4-2.8-.4-1.1-.9-1.9-1.7-2.7-.9-.9-2-1.5-3.1-1.8-.8-.2-2.7-.3-3.5-.1zm88.9 31.6v20h7.6v-9.4l1.6-1.6 1.6-1.6s.4.7.9 1.5 1 1.7 1.1 2c.2.3 1.4 2.4 2.7 4.8l2.4 4.3h8.9v-.4c0-.3 0-.5-.1-.7-.1-.2-2-3.4-3.6-6.1-1.3-2.2-3-5.1-5-8.4l-1.6-2.6.2-.2c.1-.1 1.1-1.2 2.2-2.4s2.7-3 3.7-4 2.3-2.5 3-3.3c.7-.8 1.3-1.4 1.3-1.5 0 0-2.1-.1-4.7-.1-4.4 0-4.7 0-4.9.1-.1.1-.4.5-.8.9-.7.8-2.1 2.5-6.4 7.4l-2.4 2.8V11.6h-7.6l-.1 20.1zM93.8 21.3c-1.8.2-3.4.7-4.7 1.6-.7.5-2 1.9-2.7 3l-.2.3V22h-7.4v19.3h-.7c-.6 0-.8.1-1.7.4-4.3 1.6-8.7 3.1-10.3 3.5-2 .5-3.2.7-5.1.7-1.4 0-1.6 0-2.4-.2-1-.2-1.4-.4-1.8-.8-.4-.4-.6-.8-.6-1.3v-.4l.7-.1c2.5-.4 5.4-1.5 7.7-2.9 1.6-1 2.8-2 4.1-3.3 1.8-1.9 2.8-3.4 3.2-5.3.3-1.2.4-2 .3-3.3-.1-2.2-.5-3.5-1.6-4.6-1.2-1.2-2.5-1.7-4.4-1.7-2.5 0-4.5.7-6.6 2.4-.8.6-2.7 2.5-3.6 3.6-1.7 2-3.8 5.5-4.7 7.9-.7 1.7-1.4 4.5-1.5 5.9v.5H49c-1.9.7-7.2 2.5-8.5 2.9-2.1.5-3.4.7-5.4.7-1.4 0-1.6 0-2.4-.2-.4-.1-1-.3-1.2-.4-.7-.4-1.2-1.1-1.3-1.8v-.4h.3c1.7-.2 4.1-1 6-1.9 2.2-1.1 4-2.3 5.7-4 2.2-2.1 3.4-4.2 3.8-6.5.2-1.1.2-2.8.1-3.7-.1-.9-.4-1.8-.7-2.4-.5-.9-1.6-1.8-2.6-2.3-1.4-.6-3.5-.6-5.3-.1-2 .5-3.4 1.5-5.4 3.5s-3.1 3.4-4.6 5.9c-1.9 3.2-2.7 5.2-3.5 9-.2.9-.2 1.1-.2 2.5 0 1.5 0 1.6.2 2.3.4 1.7 1.1 2.7 2.3 4 1.4 1.3 2.7 2 4.8 2.3 3.8.6 8 .2 12.9-1.2 1.6-.5 2.6-.8 6.4-2.3l.4-.2.3.4c.4.5 1.6 1.6 2 1.9 1.3.8 2.5 1.2 4.9 1.5.9.1 3.9.1 4.9 0 3.9-.4 7.5-1.4 13.1-3.7 1.3-.5 2.2-.9 2.3-.9 0 0 .1 1 .1 2.2v2.2h7.7v-8.9c0-8.7 0-8.9.2-9.7.4-2.3 1.3-3.8 2.9-4.7 1.3-.7 3.5-.9 5.1-.4.8.2 1.5.7 1.9 1.3.4.5.5.8.7 1.4.3 1.1.4 1.3.4 11.5v9.5h8V30.8c-.2-3.6-1.2-5.9-3.2-7.4-1.7-1.3-3.6-2-6.1-2.2-.8 0-1.2 0-2.2.1zm-53.9 6.9c.3.4.2 1.5-.2 2.4-.7 1.7-2.9 3.6-5.7 4.9-.8.4-2 .8-2 .7-.1-.1.6-1.5 1.1-2.4 1.1-1.9 3.2-4.3 4.5-5.2.3-.2.8-.4 1.3-.6.4 0 .9 0 1 .2zm25.5-.1c.2.1.3.1.3.4.2.9-.1 2.3-.9 3.3-1.2 1.6-3.6 3.2-6.2 4.2-1 .4-1 .4-.9.2.1-.3.9-1.9 1.3-2.5.9-1.5 2.7-3.6 3.8-4.5.7-.6 1.7-1.1 2.3-1.1 0-.1.2-.1.3 0z"></path>
</svg>